<svg xmlns="http://www.w3.org/2000/svg" width="44.445" height="44.446" viewBox="0 0 44.445 44.446">
  <g id="rel" transform="translate(-54.094 -48.02)">
    <path id="Path_9" data-name="Path 9" d="M86.666,92.466a21.959,21.959,0,0,1-5.13-.647c-5.8-1.4-11.765-4.946-16.8-9.989s-8.591-11.013-9.989-16.8c-1.473-6.091-.422-11.3,2.954-14.679l.964-.964a4.665,4.665,0,0,1,6.591,0l5.54,5.539a4.663,4.663,0,0,1,0,6.591L67.52,64.784A40.431,40.431,0,0,0,81.774,79.038l3.271-3.272a4.66,4.66,0,0,1,6.591,0L97.175,81.3a4.661,4.661,0,0,1,0,6.59l-.965.964A13.084,13.084,0,0,1,86.666,92.466ZM61.957,51.334a1.327,1.327,0,0,0-.95.394l-.965.964c-2.528,2.528-3.267,6.633-2.079,11.551,1.257,5.21,4.493,10.624,9.11,15.241a33.518,33.518,0,0,0,15.242,9.11c4.92,1.187,9.022.449,11.55-2.079l.964-.964a1.344,1.344,0,0,0,0-1.9l-5.537-5.539a1.344,1.344,0,0,0-1.9,0l-4.147,4.147a1.658,1.658,0,0,1-1.935.3,40.946,40.946,0,0,1-9.911-7.4A41.046,41.046,0,0,1,64,65.249a1.658,1.658,0,0,1,.3-1.935l4.148-4.147a1.344,1.344,0,0,0,0-1.9l-5.539-5.54A1.334,1.334,0,0,0,61.957,51.334Z" transform="translate(0)" fill="#fff"/>
    <path id="Path_10" data-name="Path 10" d="M249.789,141.418a1.658,1.658,0,0,1-1.658-1.658,10.985,10.985,0,0,0-10.972-10.973,1.658,1.658,0,1,1,0-3.317,14.306,14.306,0,0,1,14.289,14.29A1.658,1.658,0,0,1,249.789,141.418Z" transform="translate(-161.352 -68.888)" fill="#fff"/>
    <path id="Path_11" data-name="Path 11" d="M256.8,85.027a1.658,1.658,0,0,1-1.658-1.658,18,18,0,0,0-17.981-17.982,1.658,1.658,0,0,1,0-3.317,21.322,21.322,0,0,1,21.3,21.3A1.658,1.658,0,0,1,256.8,85.027Z" transform="translate(-161.352 -12.497)" fill="#fff"/>
  </g>
</svg>
