<svg xmlns="http://www.w3.org/2000/svg" width="45.221" height="33.916" viewBox="0 0 45.221 33.916">
  <path id="email" d="M22.611,89.437a6.751,6.751,0,0,1-4.165-1.449L0,73.645V93.676a4.24,4.24,0,0,0,4.239,4.239H40.982a4.239,4.239,0,0,0,4.239-4.239V73.645L26.779,88A6.8,6.8,0,0,1,22.611,89.437ZM1.439,71.181,20.181,85.763a3.959,3.959,0,0,0,4.863,0L43.786,71.181a3.99,3.99,0,0,0,1.435-2.941A4.24,4.24,0,0,0,40.982,64H4.239A4.239,4.239,0,0,0,0,68.239,3.729,3.729,0,0,0,1.439,71.181Z" transform="translate(0 -64)" fill="#fff"/>
</svg>
