<svg id="facebook" xmlns="http://www.w3.org/2000/svg" width="49.109" height="49.109" viewBox="0 0 49.109 49.109">
  <path id="Path_1" data-name="Path 1" d="M49.109,24.555A24.555,24.555,0,1,0,20.718,48.811V31.652H14.483v-7.1h6.235v-5.41c0-6.154,3.666-9.553,9.275-9.553a37.759,37.759,0,0,1,5.5.48v6.043h-3.1c-3.05,0-4,1.893-4,3.835v4.606H35.2l-1.089,7.1H28.391V48.811A24.561,24.561,0,0,0,49.109,24.555Z" fill="#1877f2"/>
  <path id="Path_2" data-name="Path 2" d="M170.629,122.061l1.089-7.1h-6.81v-4.606c0-1.942.951-3.835,4-3.835h3.1V100.48a37.762,37.762,0,0,0-5.5-.48c-5.609,0-9.275,3.4-9.275,9.553v5.41H151v7.1h6.235v17.158a24.823,24.823,0,0,0,7.673,0V122.061Z" transform="translate(-136.517 -90.408)" fill="#fff"/>
</svg>
