<svg id="twitter" xmlns="http://www.w3.org/2000/svg" width="55.002" height="55.002" viewBox="0 0 55.002 55.002">
  <g id="Dark_Blue">
    <path id="Path_3" data-name="Path 3" d="M27.5,0h0A27.5,27.5,0,0,1,55,27.5h0A27.5,27.5,0,0,1,27.5,55h0A27.5,27.5,0,0,1,0,27.5H0A27.5,27.5,0,0,1,27.5,0Z" fill="#1da1f2"/>
  </g>
  <g id="Logo_FIXED">
    <path id="Path_4" data-name="Path 4" d="M198.5,274.036c12.969,0,20.07-10.747,20.07-20.07,0-.3,0-.611-.022-.913a14.337,14.337,0,0,0,3.52-3.652,14.011,14.011,0,0,1-4.048,1.111,7.07,7.07,0,0,0,3.1-3.9,14.113,14.113,0,0,1-4.477,1.711,7.058,7.058,0,0,0-12.018,6.43,20.035,20.035,0,0,1-14.537-7.37,7.06,7.06,0,0,0,2.184,9.416,7.017,7.017,0,0,1-3.2-.88v.088a7.054,7.054,0,0,0,5.66,6.914,7.081,7.081,0,0,1-3.185.121,7.069,7.069,0,0,0,6.589,4.9,14.131,14.131,0,0,1-8.756,3.025,13.146,13.146,0,0,1-1.678-.1,19.869,19.869,0,0,0,10.8,3.168" transform="translate(-177.376 -232.565)" fill="#fff"/>
    <path id="Path_5" data-name="Path 5" d="M27.5,0h0A27.5,27.5,0,0,1,55,27.5h0A27.5,27.5,0,0,1,27.5,55h0A27.5,27.5,0,0,1,0,27.5H0A27.5,27.5,0,0,1,27.5,0Z" fill="none"/>
  </g>
</svg>
