<svg id="web" xmlns="http://www.w3.org/2000/svg" width="48.855" height="48.855" viewBox="0 0 48.855 48.855">
  <g id="Core">
    <g id="language">
      <path id="Shape" d="M24.428,0A24.428,24.428,0,1,0,48.855,24.428,24.5,24.5,0,0,0,24.428,0ZM41.283,14.657H34.2a38.608,38.608,0,0,0-3.42-8.794,19.662,19.662,0,0,1,10.5,8.794ZM24.428,4.886a32.8,32.8,0,0,1,4.641,9.771H19.786a35.916,35.916,0,0,1,4.641-9.771ZM5.618,29.313a15.75,15.75,0,0,1-.733-4.886,15.75,15.75,0,0,1,.733-4.886h8.305a32.738,32.738,0,0,0-.244,4.886c0,1.71.244,3.176.244,4.886ZM7.573,34.2h7.084a38.608,38.608,0,0,0,3.42,8.794A19.662,19.662,0,0,1,7.573,34.2Zm7.084-19.542H7.573a20.588,20.588,0,0,1,10.5-8.794,38.608,38.608,0,0,0-3.42,8.794ZM24.428,43.97A32.8,32.8,0,0,1,19.786,34.2h9.283a35.916,35.916,0,0,1-4.641,9.771Zm5.618-14.657H18.809a33.1,33.1,0,0,1-.489-4.886,33.1,33.1,0,0,1,.489-4.886H30.29a33.1,33.1,0,0,1,.489,4.886,33.72,33.72,0,0,1-.733,4.886Zm.733,13.679A34.658,34.658,0,0,0,34.2,34.2h7.084a19.662,19.662,0,0,1-10.5,8.794Zm4.4-13.679a32.738,32.738,0,0,0,.244-4.886c0-1.71-.244-3.176-.244-4.886h8.305a15.75,15.75,0,0,1,.733,4.886,15.75,15.75,0,0,1-.733,4.886Z" fill="#fff" fill-rule="evenodd"/>
    </g>
  </g>
</svg>
